<?xml version="1.0" encoding="UTF-8" standalone="no"?>
<!DOCTYPE svg PUBLIC "-//W3C//DTD SVG 1.1//EN" "http://www.w3.org/Graphics/SVG/1.1/DTD/svg11.dtd">
<svg version="1.1" xmlns="http://www.w3.org/2000/svg" xmlns:xlink="http://www.w3.org/1999/xlink" preserveAspectRatio="xMidYMid meet" viewBox="216.7798132183904 159.91127873563227 203.22934626436844 183.6844468390804" width="199.23" height="172.43"><defs><path d="M262.48 160.91C266.8 160.91 270.3 164.41 270.3 168.72C270.3 181.39 270.3 211.56 270.3 224.22C270.3 228.54 266.8 232.04 262.48 232.04C253.54 232.04 234.53 232.04 225.59 232.04C221.28 232.04 217.78 228.54 217.78 224.22C217.78 211.56 217.78 181.39 217.78 168.72C217.78 164.41 221.28 160.91 225.59 160.91C234.53 160.91 253.54 160.91 262.48 160.91Z" id="dhRL9886X"></path><path d="M409.2 163.26C413.51 163.26 417.01 166.75 417.01 171.07C417.01 183.73 417.01 213.91 417.01 226.57C417.01 230.88 413.51 234.38 409.2 234.38C400.26 234.38 381.25 234.38 372.3 234.38C367.99 234.38 364.49 230.88 364.49 226.57C364.49 213.91 364.49 183.73 364.49 171.07C364.49 166.75 367.99 163.26 372.3 163.26C381.25 163.26 400.26 163.26 409.2 163.26Z" id="a7FXY8ZTOX"></path><path d="M395.64 198.82C399.55 198.82 402.72 201.99 402.72 205.9C402.72 231.04 402.72 299.38 402.72 324.52C402.72 328.43 399.55 331.6 395.64 331.6C363.44 331.6 273.93 331.6 241.74 331.6C237.83 331.6 234.66 328.43 234.66 324.52C234.66 299.38 234.66 231.04 234.66 205.9C234.66 201.99 237.83 198.82 241.74 198.82C273.93 198.82 363.44 198.82 395.64 198.82Z" id="iWeEuCU3d"></path><path d="M286.56 223.12C292.08 223.12 296.56 227.6 296.56 233.12C296.56 243.78 296.56 265.77 296.56 276.43C296.56 281.95 292.08 286.43 286.56 286.43C276.18 286.43 255.04 286.43 244.66 286.43C239.14 286.43 234.66 281.95 234.66 276.43C234.66 265.77 234.66 243.78 234.66 233.12C234.66 227.6 239.14 223.12 244.66 223.12C255.04 223.12 276.18 223.12 286.56 223.12Z" id="ab8Hcpjhm"></path><path d="M392.72 223.67C398.24 223.67 402.72 228.15 402.72 233.67C402.72 244.34 402.72 266.32 402.72 276.98C402.72 282.51 398.24 286.98 392.72 286.98C381.82 286.98 359.13 286.98 348.23 286.98C342.71 286.98 338.23 282.51 338.23 276.98C338.23 266.32 338.23 244.34 338.23 233.67C338.23 228.15 342.71 223.67 348.23 223.67C359.13 223.67 381.82 223.67 392.72 223.67Z" id="l2DKbPGWtT"></path><path d="M354 265.94C359.52 265.94 364 270.42 364 275.94C364 287.42 364 311.87 364 323.35C364 328.87 359.52 333.35 354 333.35C337.87 333.35 299.5 333.35 283.37 333.35C277.85 333.35 273.37 328.87 273.37 323.35C273.37 311.87 273.37 287.42 273.37 275.94C273.37 270.42 277.85 265.94 283.37 265.94C299.5 265.94 337.87 265.94 354 265.94Z" id="b2vOOtcuet"></path><path d="M374.99 216.4C377.72 216.4 379.93 218.61 379.93 221.34C379.93 226.61 379.93 237.47 379.93 242.74C379.93 245.47 377.72 247.68 374.99 247.68C369.8 247.68 359.18 247.68 353.99 247.68C351.26 247.68 349.05 245.47 349.05 242.74C349.05 237.47 349.05 226.61 349.05 221.34C349.05 218.61 351.26 216.4 353.99 216.4C359.18 216.4 369.8 216.4 374.99 216.4Z" id="lpJKieWZz"></path><path d="M284.65 248.68C286.69 248.68 288.34 250.34 288.34 252.38C288.34 254.3 288.34 256.36 288.34 258.28C288.34 260.32 286.69 261.97 284.65 261.97C280.85 261.97 273.17 261.97 269.37 261.97C267.33 261.97 265.68 260.32 265.68 258.28C265.68 256.36 265.68 254.3 265.68 252.38C265.68 250.34 267.33 248.68 269.37 248.68C273.17 248.68 280.85 248.68 284.65 248.68Z" id="dPTsqN5Zy"></path><path d="M363.92 248.68C365.96 248.68 367.61 250.34 367.61 252.38C367.61 254.3 367.61 256.36 367.61 258.28C367.61 260.32 365.96 261.97 363.92 261.97C360.12 261.97 352.44 261.97 348.64 261.97C346.6 261.97 344.95 260.32 344.95 258.28C344.95 256.36 344.95 254.3 344.95 252.38C344.95 250.34 346.6 248.68 348.64 248.68C352.44 248.68 360.12 248.68 363.92 248.68Z" id="mLzaxsbER"></path><path d="M283.01 250.28C283.41 250.28 283.73 250.6 283.73 251C283.73 252.65 283.73 256.9 283.73 258.56C283.73 258.95 283.41 259.28 283.01 259.28C281.36 259.28 277.11 259.28 275.45 259.28C275.06 259.28 274.73 258.95 274.73 258.56C274.73 256.9 274.73 252.65 274.73 251C274.73 250.6 275.06 250.28 275.45 250.28C277.11 250.28 281.36 250.28 283.01 250.28Z" id="a4yvhDe5IN"></path><path d="M397.07 261.42C400.19 261.42 402.72 263.95 402.72 267.07C402.72 273.09 402.72 285.51 402.72 291.53C402.72 294.64 400.19 297.17 397.07 297.17C392.02 297.17 382.53 297.17 377.48 297.17C374.36 297.17 371.84 294.64 371.84 291.53C371.84 285.51 371.84 273.09 371.84 267.07C371.84 263.95 374.36 261.42 377.48 261.42C382.53 261.42 392.02 261.42 397.07 261.42Z" id="g1ZMxMr7S0"></path><path d="M280.8 216.85C283.52 216.85 285.74 219.07 285.74 221.79C285.74 227.06 285.74 237.92 285.74 243.19C285.74 245.92 283.52 248.13 280.8 248.13C275.61 248.13 264.99 248.13 259.8 248.13C257.07 248.13 254.86 245.92 254.86 243.19C254.86 237.92 254.86 227.06 254.86 221.79C254.86 219.07 257.07 216.85 259.8 216.85C264.99 216.85 275.61 216.85 280.8 216.85Z" id="e2iJLF9Soy"></path><path d="M259.89 261.42C263.01 261.42 265.54 263.95 265.54 267.07C265.54 273.09 265.54 285.51 265.54 291.53C265.54 294.64 263.01 297.17 259.89 297.17C254.84 297.17 245.35 297.17 240.31 297.17C237.19 297.17 234.66 294.64 234.66 291.53C234.66 285.51 234.66 273.09 234.66 267.07C234.66 263.95 237.19 261.42 240.31 261.42C245.35 261.42 254.84 261.42 259.89 261.42Z" id="a7Qljesmy"></path><path d="M398.92 271.13C401.01 271.13 402.72 272.84 402.72 274.93C402.72 281.32 402.72 296.7 402.72 303.09C402.72 305.19 401.01 306.89 398.92 306.89C396.71 306.89 393.88 306.89 391.66 306.89C389.57 306.89 387.86 305.19 387.86 303.09C387.86 296.7 387.86 281.32 387.86 274.93C387.86 272.84 389.57 271.13 391.66 271.13C393.88 271.13 396.71 271.13 398.92 271.13Z" id="ela0nKhFl"></path><path d="M245.71 271.13C247.81 271.13 249.51 272.84 249.51 274.93C249.51 281.32 249.51 296.7 249.51 303.09C249.51 305.19 247.81 306.89 245.71 306.89C243.5 306.89 240.67 306.89 238.46 306.89C236.36 306.89 234.66 305.19 234.66 303.09C234.66 296.7 234.66 281.32 234.66 274.93C234.66 272.84 236.36 271.13 238.46 271.13C240.67 271.13 243.5 271.13 245.71 271.13Z" id="a2Q74EH0T"></path><path d="M363.77 250.28C364.17 250.28 364.49 250.6 364.49 251C364.49 252.65 364.49 256.9 364.49 258.56C364.49 258.95 364.17 259.28 363.77 259.28C362.12 259.28 357.87 259.28 356.21 259.28C355.81 259.28 355.49 258.95 355.49 258.56C355.49 256.9 355.49 252.65 355.49 251C355.49 250.6 355.81 250.28 356.21 250.28C357.87 250.28 362.12 250.28 363.77 250.28Z" id="bdOaVAxEw"></path><path d="M322.62 284.54C325.28 284.54 327.43 286.69 327.43 289.34C327.43 295.1 327.43 307.58 327.43 313.35C327.43 316 325.28 318.15 322.62 318.15C320.61 318.15 319.39 318.15 317.38 318.15C314.72 318.15 312.57 316 312.57 313.35C312.57 307.58 312.57 295.1 312.57 289.34C312.57 286.69 314.72 284.54 317.38 284.54C319.39 284.54 320.61 284.54 322.62 284.54Z" id="b1XglL7Uz"></path><path d="M350.11 313.65C352.6 313.65 354.61 315.66 354.61 318.15C354.61 319.05 354.61 317.25 354.61 318.15C354.61 320.63 352.6 322.65 350.11 322.65C337.17 322.65 302.83 322.65 289.89 322.65C287.4 322.65 285.39 320.63 285.39 318.15C285.39 317.25 285.39 319.05 285.39 318.15C285.39 315.66 287.4 313.65 289.89 313.65C302.83 313.65 337.17 313.65 350.11 313.65Z" id="c3AZiKeYB2"></path><path d="M338.23 290.86C339.96 290.86 341.36 292.26 341.36 293.99C341.36 300.51 341.36 316.97 341.36 323.49C341.36 325.22 339.96 326.62 338.23 326.62C337.61 326.62 338.86 326.62 338.23 326.62C336.51 326.62 335.11 325.22 335.11 323.49C335.11 316.97 335.11 300.51 335.11 293.99C335.11 292.26 336.51 290.86 338.23 290.86C338.86 290.86 337.61 290.86 338.23 290.86Z" id="a4OOrsKVic"></path><path d="M334.27 276.05C340.89 276.05 346.26 281.42 346.26 288.04C346.26 290.82 346.26 287.2 346.26 289.99C346.26 296.61 340.89 301.97 334.27 301.97C326.17 301.97 313.83 301.97 305.73 301.97C299.11 301.97 293.74 296.61 293.74 289.99C293.74 287.2 293.74 290.82 293.74 288.04C293.74 281.42 299.11 276.05 305.73 276.05C313.83 276.05 326.17 276.05 334.27 276.05Z" id="j2RFmDjZGd"></path></defs><g><g><use xlink:href="#dhRL9886X" opacity="1" fill="#323030" fill-opacity="1"></use></g><g><use xlink:href="#a7FXY8ZTOX" opacity="1" fill="#323030" fill-opacity="1"></use></g><g><g><filter id="shadow13730958" x="206.66" y="170.82" width="224.06" height="188.78" filterUnits="userSpaceOnUse" primitiveUnits="userSpaceOnUse"><feFlood></feFlood><feComposite in2="SourceAlpha" operator="in"></feComposite><feGaussianBlur stdDeviation="3.32"></feGaussianBlur><feOffset dx="0" dy="0" result="afterOffset"></feOffset><feFlood flood-color="#000000" flood-opacity="0.5"></feFlood><feComposite in2="afterOffset" operator="in"></feComposite><feMorphology operator="dilate" radius="1"></feMorphology><feComposite in2="SourceAlpha" operator="out"></feComposite></filter><path d="M395.64 198.82C399.55 198.82 402.72 201.99 402.72 205.9C402.72 231.04 402.72 299.38 402.72 324.52C402.72 328.43 399.55 331.6 395.64 331.6C363.44 331.6 273.93 331.6 241.74 331.6C237.83 331.6 234.66 328.43 234.66 324.52C234.66 299.38 234.66 231.04 234.66 205.9C234.66 201.99 237.83 198.82 241.74 198.82C273.93 198.82 363.44 198.82 395.64 198.82Z" id="f6Wj7ww2l" fill="white" fill-opacity="1" filter="url(#shadow13730958)"></path></g><use xlink:href="#iWeEuCU3d" opacity="1" fill="#dadada" fill-opacity="1"></use></g><g><use xlink:href="#ab8Hcpjhm" opacity="1" fill="#323030" fill-opacity="1"></use></g><g><use xlink:href="#l2DKbPGWtT" opacity="1" fill="#323030" fill-opacity="1"></use></g><g><g><filter id="shadow12566135" x="252.37" y="244.94" width="132.63" height="109.4" filterUnits="userSpaceOnUse" primitiveUnits="userSpaceOnUse"><feFlood></feFlood><feComposite in2="SourceAlpha" operator="in"></feComposite><feGaussianBlur stdDeviation="2.65"></feGaussianBlur><feOffset dx="0" dy="0" result="afterOffset"></feOffset><feFlood flood-color="#000000" flood-opacity="0.5"></feFlood><feComposite in2="afterOffset" operator="in"></feComposite><feMorphology operator="dilate" radius="2"></feMorphology><feComposite in2="SourceAlpha" operator="out"></feComposite></filter><path d="M354 265.94C359.52 265.94 364 270.42 364 275.94C364 287.42 364 311.87 364 323.35C364 328.87 359.52 333.35 354 333.35C337.87 333.35 299.5 333.35 283.37 333.35C277.85 333.35 273.37 328.87 273.37 323.35C273.37 311.87 273.37 287.42 273.37 275.94C273.37 270.42 277.85 265.94 283.37 265.94C299.5 265.94 337.87 265.94 354 265.94Z" id="g3xO06J3w" fill="white" fill-opacity="1" filter="url(#shadow12566135)"></path></g><use xlink:href="#b2vOOtcuet" opacity="1" fill="#dadada" fill-opacity="1"></use></g><g><use xlink:href="#lpJKieWZz" opacity="1" fill="#323030" fill-opacity="1"></use></g><g><use xlink:href="#dPTsqN5Zy" opacity="1" fill="#dadada" fill-opacity="1"></use></g><g><use xlink:href="#mLzaxsbER" opacity="1" fill="#dadada" fill-opacity="1"></use></g><g><use xlink:href="#a4yvhDe5IN" opacity="1" fill="#404040" fill-opacity="1"></use></g><g><use xlink:href="#g1ZMxMr7S0" opacity="1" fill="#323030" fill-opacity="1"></use></g><g><use xlink:href="#e2iJLF9Soy" opacity="1" fill="#323030" fill-opacity="1"></use></g><g><use xlink:href="#a7Qljesmy" opacity="1" fill="#323030" fill-opacity="1"></use></g><g><use xlink:href="#ela0nKhFl" opacity="1" fill="#323030" fill-opacity="1"></use></g><g><use xlink:href="#a2Q74EH0T" opacity="1" fill="#323030" fill-opacity="1"></use></g><g><use xlink:href="#bdOaVAxEw" opacity="1" fill="#404040" fill-opacity="1"></use></g><g><use xlink:href="#b1XglL7Uz" opacity="1" fill="#323030" fill-opacity="1"></use></g><g><use xlink:href="#c3AZiKeYB2" opacity="1" fill="#7b7979" fill-opacity="1"></use></g><g><use xlink:href="#a4OOrsKVic" opacity="1" fill="#297635" fill-opacity="1"></use></g><g><use xlink:href="#j2RFmDjZGd" opacity="1" fill="#323030" fill-opacity="1"></use></g></g></svg>